<svg width="20" height="20" viewBox="0 0 20 20" fill="none" xmlns="http://www.w3.org/2000/svg">
<path d="M16.167 12.4999C16.056 12.7512 16.0229 13.03 16.0719 13.3003C16.121 13.5707 16.2498 13.8201 16.442 14.0165L16.492 14.0665C16.6469 14.2213 16.7698 14.4051 16.8537 14.6075C16.9376 14.8098 16.9808 15.0267 16.9808 15.2457C16.9808 15.4647 16.9376 15.6816 16.8537 15.8839C16.7698 16.0863 16.6469 16.2701 16.492 16.4249C16.3372 16.5798 16.1533 16.7027 15.951 16.7866C15.7487 16.8705 15.5318 16.9137 15.3128 16.9137C15.0938 16.9137 14.8769 16.8705 14.6746 16.7866C14.4722 16.7027 14.2884 16.5798 14.1336 16.4249L14.0836 16.3749C13.8872 16.1827 13.6378 16.0539 13.3674 16.0049C13.0971 15.9558 12.8183 15.9889 12.567 16.0999C12.3205 16.2055 12.1103 16.3809 11.9622 16.6045C11.8141 16.828 11.7347 17.09 11.7336 17.3582V17.4999C11.7336 17.9419 11.558 18.3658 11.2455 18.6784C10.9329 18.9909 10.509 19.1665 10.067 19.1665C9.62492 19.1665 9.201 18.9909 8.88844 18.6784C8.57588 18.3658 8.40029 17.9419 8.40029 17.4999V17.4249C8.39383 17.149 8.30455 16.8815 8.14404 16.6571C7.98354 16.4327 7.75923 16.2618 7.50029 16.1665C7.24894 16.0556 6.97012 16.0225 6.69979 16.0715C6.42947 16.1205 6.18002 16.2494 5.98362 16.4415L5.93362 16.4915C5.77883 16.6465 5.59502 16.7694 5.39269 16.8533C5.19036 16.9372 4.97348 16.9803 4.75445 16.9803C4.53543 16.9803 4.31855 16.9372 4.11622 16.8533C3.91389 16.7694 3.73007 16.6465 3.57528 16.4915C3.42032 16.3367 3.29739 16.1529 3.21352 15.9506C3.12964 15.7483 3.08647 15.5314 3.08647 15.3124C3.08647 15.0933 3.12964 14.8765 3.21352 14.6741C3.29739 14.4718 3.42032 14.288 3.57528 14.1332L3.62528 14.0832C3.8174 13.8868 3.94627 13.6373 3.99529 13.367C4.0443 13.0967 4.01121 12.8179 3.90028 12.5665C3.79465 12.32 3.61925 12.1098 3.39567 11.9618C3.1721 11.8137 2.91011 11.7343 2.64195 11.7332H2.50028C2.05826 11.7332 1.63433 11.5576 1.32177 11.245C1.00921 10.9325 0.833618 10.5085 0.833618 10.0665C0.833618 9.62449 1.00921 9.20057 1.32177 8.88801C1.63433 8.57545 2.05826 8.39985 2.50028 8.39985H2.57528C2.85111 8.3934 3.11862 8.30412 3.34303 8.14361C3.56745 7.98311 3.73838 7.7588 3.83362 7.49985C3.94455 7.24851 3.97764 6.96969 3.92862 6.69936C3.87961 6.42903 3.75073 6.17959 3.55862 5.98319L3.50862 5.93319C3.35366 5.7784 3.23073 5.59458 3.14685 5.39225C3.06298 5.18992 3.01981 4.97305 3.01981 4.75402C3.01981 4.53499 3.06298 4.31812 3.14685 4.11579C3.23073 3.91346 3.35366 3.72964 3.50862 3.57485C3.66341 3.41989 3.84722 3.29696 4.04955 3.21309C4.25188 3.12921 4.46876 3.08604 4.68778 3.08604C4.90681 3.08604 5.12369 3.12921 5.32602 3.21309C5.52835 3.29696 5.71216 3.41989 5.86695 3.57485L5.91695 3.62485C6.11335 3.81697 6.3628 3.94584 6.63313 3.99486C6.90346 4.04387 7.18227 4.01078 7.43362 3.89985H7.50029C7.74676 3.79422 7.95697 3.61882 8.10503 3.39524C8.25309 3.17167 8.33255 2.90968 8.33362 2.64152V2.49985C8.33362 2.05783 8.50921 1.6339 8.82177 1.32134C9.13433 1.00878 9.55826 0.833187 10.0003 0.833187C10.4423 0.833187 10.8662 1.00878 11.1788 1.32134C11.4914 1.6339 11.667 2.05783 11.667 2.49985V2.57485C11.668 2.84301 11.7475 3.105 11.8955 3.32858C12.0436 3.55215 12.2538 3.72755 12.5003 3.83319C12.7516 3.94412 13.0304 3.97721 13.3008 3.92819C13.5711 3.87918 13.8206 3.7503 14.017 3.55819L14.067 3.50819C14.2217 3.35323 14.4056 3.23029 14.6079 3.14642C14.8102 3.06255 15.0271 3.01938 15.2461 3.01938C15.4651 3.01938 15.682 3.06255 15.8844 3.14642C16.0867 3.23029 16.2705 3.35323 16.4253 3.50819C16.5802 3.66298 16.7032 3.84679 16.7871 4.04912C16.8709 4.25145 16.9141 4.46833 16.9141 4.68735C16.9141 4.90638 16.8709 5.12326 16.7871 5.32559C16.7032 5.52792 16.5802 5.71173 16.4253 5.86652L16.3753 5.91652C16.1832 6.11292 16.0543 6.36237 16.0053 6.6327C15.9563 6.90303 15.9894 7.18184 16.1003 7.43319V7.49985C16.2059 7.74633 16.3813 7.95653 16.6049 8.1046C16.8285 8.25266 17.0905 8.33212 17.3586 8.33319H17.5003C17.9423 8.33319 18.3662 8.50878 18.6788 8.82134C18.9914 9.1339 19.167 9.55783 19.167 9.99985C19.167 10.4419 18.9914 10.8658 18.6788 11.1784C18.3662 11.4909 17.9423 11.6665 17.5003 11.6665H17.4253C17.1571 11.6676 16.8951 11.747 16.6716 11.8951C16.448 12.0432 16.2726 12.2534 16.167 12.4999Z" fill="white"/>
<path d="M10 12.5C11.3807 12.5 12.5 11.3807 12.5 10C12.5 8.61929 11.3807 7.5 10 7.5C8.61929 7.5 7.5 8.61929 7.5 10C7.5 11.3807 8.61929 12.5 10 12.5Z" stroke="#26252D" stroke-width="1.2" stroke-linecap="round" stroke-linejoin="round"/>
</svg>
