<svg width="20" height="20" viewBox="0 0 20 20" fill="none" xmlns="http://www.w3.org/2000/svg">
<path d="M16.167 12.5007C16.056 12.752 16.0229 13.0308 16.0719 13.3011C16.121 13.5715 16.2498 13.8209 16.442 14.0173L16.492 14.0673C16.6469 14.2221 16.7698 14.4059 16.8537 14.6083C16.9376 14.8106 16.9808 15.0275 16.9808 15.2465C16.9808 15.4655 16.9376 15.6824 16.8537 15.8847C16.7698 16.087 16.6469 16.2709 16.492 16.4257C16.3372 16.5806 16.1533 16.7035 15.951 16.7874C15.7487 16.8713 15.5318 16.9145 15.3128 16.9145C15.0938 16.9145 14.8769 16.8713 14.6746 16.7874C14.4722 16.7035 14.2884 16.5806 14.1336 16.4257L14.0836 16.3757C13.8872 16.1835 13.6378 16.0547 13.3674 16.0056C13.0971 15.9566 12.8183 15.9897 12.567 16.1007C12.3205 16.2063 12.1103 16.3817 11.9622 16.6053C11.8141 16.8288 11.7347 17.0908 11.7336 17.359V17.5007C11.7336 17.9427 11.558 18.3666 11.2455 18.6792C10.9329 18.9917 10.509 19.1673 10.067 19.1673C9.62492 19.1673 9.201 18.9917 8.88844 18.6792C8.57588 18.3666 8.40029 17.9427 8.40029 17.5007V17.4257C8.39383 17.1498 8.30455 16.8823 8.14404 16.6579C7.98354 16.4335 7.75923 16.2626 7.50029 16.1673C7.24894 16.0564 6.97012 16.0233 6.69979 16.0723C6.42947 16.1213 6.18002 16.2502 5.98362 16.4423L5.93362 16.4923C5.77883 16.6473 5.59502 16.7702 5.39269 16.8541C5.19036 16.938 4.97348 16.9811 4.75445 16.9811C4.53543 16.9811 4.31855 16.938 4.11622 16.8541C3.91389 16.7702 3.73007 16.6473 3.57528 16.4923C3.42032 16.3375 3.29739 16.1537 3.21352 15.9514C3.12964 15.7491 3.08647 15.5322 3.08647 15.3132C3.08647 15.0941 3.12964 14.8772 3.21352 14.6749C3.29739 14.4726 3.42032 14.2888 3.57528 14.134L3.62528 14.084C3.8174 13.8876 3.94627 13.6381 3.99529 13.3678C4.0443 13.0975 4.01121 12.8187 3.90028 12.5673C3.79465 12.3208 3.61925 12.1106 3.39567 11.9626C3.1721 11.8145 2.91011 11.7351 2.64195 11.734H2.50028C2.05826 11.734 1.63433 11.5584 1.32177 11.2458C1.00921 10.9333 0.833618 10.5093 0.833618 10.0673C0.833618 9.62529 1.00921 9.20137 1.32177 8.88881C1.63433 8.57625 2.05826 8.40065 2.50028 8.40065H2.57528C2.85111 8.3942 3.11862 8.30492 3.34303 8.14441C3.56745 7.9839 3.73838 7.7596 3.83362 7.50065C3.94455 7.2493 3.97764 6.97049 3.92862 6.70016C3.87961 6.42983 3.75073 6.18038 3.55862 5.98398L3.50862 5.93398C3.35366 5.7792 3.23073 5.59538 3.14685 5.39305C3.06298 5.19072 3.01981 4.97384 3.01981 4.75482C3.01981 4.53579 3.06298 4.31891 3.14685 4.11658C3.23073 3.91425 3.35366 3.73044 3.50862 3.57565C3.66341 3.42069 3.84722 3.29776 4.04955 3.21388C4.25188 3.13001 4.46876 3.08684 4.68778 3.08684C4.90681 3.08684 5.12369 3.13001 5.32602 3.21388C5.52835 3.29776 5.71216 3.42069 5.86695 3.57565L5.91695 3.62565C6.11335 3.81777 6.3628 3.94664 6.63313 3.99565C6.90346 4.04467 7.18227 4.01158 7.43362 3.90065H7.50029C7.74676 3.79502 7.95697 3.61961 8.10503 3.39604C8.25309 3.17246 8.33255 2.91047 8.33362 2.64232V2.50065C8.33362 2.05862 8.50921 1.6347 8.82177 1.32214C9.13433 1.00958 9.55826 0.833984 10.0003 0.833984C10.4423 0.833984 10.8662 1.00958 11.1788 1.32214C11.4914 1.6347 11.667 2.05862 11.667 2.50065V2.57565C11.668 2.84381 11.7475 3.1058 11.8955 3.32937C12.0436 3.55295 12.2538 3.72835 12.5003 3.83398C12.7516 3.94491 13.0304 3.978 13.3008 3.92899C13.5711 3.87997 13.8206 3.7511 14.017 3.55898L14.067 3.50898C14.2217 3.35402 14.4056 3.23109 14.6079 3.14722C14.8102 3.06334 15.0271 3.02017 15.2461 3.02017C15.4651 3.02017 15.682 3.06334 15.8844 3.14722C16.0867 3.23109 16.2705 3.35402 16.4253 3.50898C16.5802 3.66377 16.7032 3.84759 16.7871 4.04992C16.8709 4.25225 16.9141 4.46913 16.9141 4.68815C16.9141 4.90718 16.8709 5.12405 16.7871 5.32639C16.7032 5.52872 16.5802 5.71253 16.4253 5.86732L16.3753 5.91732C16.1832 6.11372 16.0543 6.36316 16.0053 6.63349C15.9563 6.90382 15.9894 7.18264 16.1003 7.43398V7.50065C16.2059 7.74713 16.3813 7.95733 16.6049 8.1054C16.8285 8.25346 17.0905 8.33292 17.3586 8.33398H17.5003C17.9423 8.33398 18.3662 8.50958 18.6788 8.82214C18.9914 9.1347 19.167 9.55862 19.167 10.0007C19.167 10.4427 18.9914 10.8666 18.6788 11.1792C18.3662 11.4917 17.9423 11.6673 17.5003 11.6673H17.4253C17.1571 11.6684 16.8951 11.7478 16.6716 11.8959C16.448 12.044 16.2726 12.2542 16.167 12.5007Z" fill="#17161B"/>
<path d="M10 12.5C11.3807 12.5 12.5 11.3807 12.5 10C12.5 8.61929 11.3807 7.5 10 7.5C8.61929 7.5 7.5 8.61929 7.5 10C7.5 11.3807 8.61929 12.5 10 12.5Z" stroke="white" stroke-width="1.2" stroke-linecap="round" stroke-linejoin="round"/>
</svg>
