<svg width="20" height="20" viewBox="0 0 20 20" fill="none" xmlns="http://www.w3.org/2000/svg">
<path d="M10 18.3327C14.6024 18.3327 18.3334 14.6017 18.3334 9.99935C18.3334 5.39698 14.6024 1.66602 10 1.66602C5.39765 1.66602 1.66669 5.39698 1.66669 9.99935C1.66669 14.6017 5.39765 18.3327 10 18.3327Z" fill="#17161B"/>
<path d="M7.57501 7.50047C7.77093 6.94353 8.15764 6.4739 8.66664 6.17475C9.17564 5.87561 9.77409 5.76626 10.356 5.86607C10.9379 5.96588 11.4657 6.26841 11.8459 6.72008C12.2261 7.17175 12.4342 7.74341 12.4333 8.33381C12.4333 10.0005 9.93335 10.8338 9.93335 10.8338" stroke="white" stroke-width="1.2" stroke-linecap="round" stroke-linejoin="round"/>
<path d="M10 14.166H10.0083" stroke="white" stroke-width="1.2" stroke-linecap="round" stroke-linejoin="round"/>
</svg>
