<svg width="20" height="20" viewBox="0 0 20 20" fill="none" xmlns="http://www.w3.org/2000/svg">
<path d="M14 1.66602H11.8333C9.16667 1.66602 7.5 3.33268 7.5 5.99935V9.37435H12.7083C13.05 9.37435 13.3333 9.65768 13.3333 9.99935C13.3333 10.341 13.05 10.6243 12.7083 10.6243H7.5V13.9993C7.5 16.666 9.16667 18.3327 11.8333 18.3327H13.9917C16.6583 18.3327 18.325 16.666 18.325 13.9993V5.99935C18.3333 3.33268 16.6667 1.66602 14 1.66602Z" fill="#17161B"/>
<path d="M3.80001 9.37552L5.52501 7.65052C5.65001 7.52552 5.70835 7.36719 5.70835 7.20885C5.70835 7.05052 5.65001 6.88385 5.52501 6.76719C5.28335 6.52552 4.88335 6.52552 4.64168 6.76719L1.85001 9.55885C1.60835 9.80052 1.60835 10.2005 1.85001 10.4422L4.64168 13.2339C4.88335 13.4755 5.28335 13.4755 5.52501 13.2339C5.76668 12.9922 5.76668 12.5922 5.52501 12.3505L3.80001 10.6255H7.50001V9.37552H3.80001Z" fill="#17161B"/>
</svg>
