<svg width="26" height="26" viewBox="0 0 26 26" fill="none" xmlns="http://www.w3.org/2000/svg">
<path d="M4.15245 1.44408C4.0293 1.4453 3.90728 1.46765 3.7917 1.51017V1.08333C3.7917 0.486417 4.27811 0 4.87503 0H20.7643C21.3612 0 21.8476 0.486417 21.8476 1.08333V1.44408H4.15245ZM22.9309 3.97258H3.06911C2.4722 3.97258 1.98578 4.459 1.98578 5.05592V24.9167C1.98578 25.5136 2.4722 26 3.06911 26H10.9774L12.1669 19.8846H9.74028C9.68503 19.8846 4.15245 19.6235 4.15245 19.6235L9.17803 19.2693L9.09353 18.8727L6.9507 18.564L8.98953 18.3928L8.85519 17.9064L5.52395 17.4005C5.52395 17.4005 9.14336 16.9964 9.19861 16.9964H12.6999L12.9675 15.5545C13.2806 13.8038 13.9913 12.5136 15.1049 11.5538C16.224 10.5874 17.6443 10.1108 19.37 10.1108C20.0666 10.1108 20.5108 10.2743 20.7036 10.6123C20.8314 10.8138 20.9214 11.1713 21.0059 11.5429C21.086 11.9243 21.1575 12.2698 21.1088 12.5212C21.047 12.8949 20.6094 13.0249 19.812 13.0249H19.5379C18.1004 13.0249 17.2261 13.8515 16.9325 15.5274L16.6693 16.9953H18.3376C18.9594 16.9953 19.1837 17.4308 19.0114 18.4102C18.8273 19.4296 18.4275 19.8835 17.8079 19.8835H16.1417L14.9544 26H22.9299C23.5268 26 24.0132 25.5136 24.0132 24.9167V5.05592C24.0132 4.76879 23.8992 4.4934 23.6963 4.29027C23.4933 4.08713 23.2181 3.97287 22.9309 3.97258ZM22.2084 2.52742C22.2081 2.43183 22.17 2.34024 22.1024 2.27264C22.0348 2.20505 21.9432 2.16695 21.8476 2.16667H4.15245C4.05686 2.16695 3.96526 2.20505 3.89767 2.27264C3.83008 2.34024 3.79198 2.43183 3.7917 2.52742V3.25H22.2084V2.52742Z" fill="#17161B"/>
</svg>
