<svg width="40" height="40" viewBox="0 0 40 40" fill="none" xmlns="http://www.w3.org/2000/svg">
<rect width="40" height="40" rx="6" fill="#6FE79F" fill-opacity="0.15"/>
<path d="M16.123 17.25L16.914 12H12.8L11.081 16.5C11.028 16.66 11 16.826 11 17C11 18.104 12.15 19 13.571 19C14.881 19 15.964 18.236 16.123 17.25ZM20 19C21.42 19 22.571 18.104 22.571 17C22.571 16.959 22.568 16.918 22.566 16.879L22.057 12H17.943L17.433 16.875C17.4306 16.9166 17.4293 16.9583 17.429 17C17.429 18.104 18.58 19 20 19ZM25 20.046V24H15V20.052C14.562 20.21 14.08 20.3 13.571 20.3C13.376 20.3 13.187 20.277 13 20.251V26.6C13 27.37 13.629 28 14.398 28H25.6C26.37 28 27 27.369 27 26.6V20.252C26.811 20.281 26.6202 20.2974 26.429 20.301C25.9414 20.3005 25.4577 20.2142 25 20.046ZM28.92 16.5L27.199 12H23.086L23.876 17.242C24.03 18.232 25.113 19 26.429 19C27.849 19 29 18.104 29 17C29 16.826 28.972 16.66 28.92 16.5Z" fill="#6FE79F"/>
</svg>
