<svg width="20" height="20" viewBox="0 0 20 20" fill="none" xmlns="http://www.w3.org/2000/svg">
<path d="M15 6.66675C15 5.34067 14.4732 4.0689 13.5355 3.13121C12.5979 2.19353 11.3261 1.66675 10 1.66675C8.67392 1.66675 7.40215 2.19353 6.46447 3.13121C5.52678 4.0689 5 5.34067 5 6.66675C5 12.5001 2.5 14.1667 2.5 14.1667H17.5C17.5 14.1667 15 12.5001 15 6.66675Z" stroke="#17161B" stroke-width="1.5" stroke-linecap="round" stroke-linejoin="round"/>
<path d="M12 16C11.7968 16.6083 11.505 17.1132 11.154 17.4642C10.803 17.8153 10.4051 18 10 18C9.59494 18 9.19698 17.8153 8.84598 17.4642C8.49498 17.1132 8.20325 16.6083 8 16" stroke="#17161B" stroke-width="1.5" stroke-linecap="round" stroke-linejoin="round"/>
<circle cx="14.5" cy="2.5" r="2.5" fill="#FA3131"/>
</svg>
