<svg width="20" height="20" viewBox="0 0 20 20" fill="none" xmlns="http://www.w3.org/2000/svg">
<path d="M15 6.66663C15 5.34054 14.4732 4.06877 13.5355 3.13109C12.5979 2.19341 11.3261 1.66663 10 1.66663C8.67392 1.66663 7.40215 2.19341 6.46447 3.13109C5.52678 4.06877 5 5.34054 5 6.66663C5 12.5 2.5 14.1666 2.5 14.1666H17.5C17.5 14.1666 15 12.5 15 6.66663Z" stroke="white" stroke-width="1.5" stroke-linecap="round" stroke-linejoin="round"/>
<path d="M12 16C11.7968 16.6083 11.505 17.1132 11.154 17.4642C10.803 17.8153 10.4051 18 10 18C9.59494 18 9.19698 17.8153 8.84598 17.4642C8.49498 17.1132 8.20325 16.6083 8 16" stroke="white" stroke-width="1.5" stroke-linecap="round" stroke-linejoin="round"/>
<circle cx="14.5" cy="2.5" r="2.5" fill="#FA3131"/>
</svg>
