<svg width="22" height="22" viewBox="0 0 22 22" fill="none" xmlns="http://www.w3.org/2000/svg">
<path d="M4.09746 10.4683L2.50246 8.87329L0.916626 10.4683" stroke="#958F9F" stroke-linecap="round" stroke-linejoin="round"/>
<path d="M17.9025 11.5317L19.4975 13.1267L21.0925 11.5317" stroke="#958F9F" stroke-linecap="round" stroke-linejoin="round"/>
<path d="M19.4883 13.1267V11.0001C19.4883 6.30673 15.6841 2.51172 10.9999 2.51172C8.32327 2.51172 5.93077 3.75841 4.37244 5.69258" stroke="#958F9F" stroke-linecap="round" stroke-linejoin="round"/>
<path d="M2.51172 8.87329V11C2.51172 15.6933 6.31589 19.4883 11.0001 19.4883C13.6767 19.4883 16.0692 18.2416 17.6276 16.3074" stroke="#958F9F" stroke-linecap="round" stroke-linejoin="round"/>
<path d="M8.25 7.79175H12.265C13.1542 7.79175 13.8692 8.59841 13.8692 9.39591C13.8692 10.2851 13.1542 11.0001 12.265 11.0001H8.25V7.79175Z" stroke="#958F9F" stroke-miterlimit="10" stroke-linecap="round" stroke-linejoin="round"/>
<path d="M8.25 11H12.8333C13.8417 11 14.6667 11.715 14.6667 12.6042C14.6667 13.4933 13.8417 14.2083 12.8333 14.2083H8.25V11Z" stroke="#958F9F" stroke-miterlimit="10" stroke-linecap="round" stroke-linejoin="round"/>
<path d="M10.8167 14.2083V15.8124" stroke="#958F9F" stroke-miterlimit="10" stroke-linecap="round" stroke-linejoin="round"/>
<path d="M10.8167 6.1875V7.79167" stroke="#958F9F" stroke-miterlimit="10" stroke-linecap="round" stroke-linejoin="round"/>
</svg>
