<svg width="22" height="22" viewBox="0 0 22 22" fill="none" xmlns="http://www.w3.org/2000/svg">
<path d="M4.09783 10.468L2.50283 8.87305L0.916992 10.468" stroke="#622CFD" stroke-linecap="round" stroke-linejoin="round"/>
<path d="M17.9023 11.5312L19.4973 13.1262L21.0923 11.5312" stroke="#622CFD" stroke-linecap="round" stroke-linejoin="round"/>
<path d="M19.4879 13.1267V11C19.4879 6.30667 15.6837 2.51166 10.9996 2.51166C8.32291 2.51166 5.9304 3.75835 4.37207 5.69252" stroke="#622CFD" stroke-linecap="round" stroke-linejoin="round"/>
<path d="M2.51172 8.87305V10.9997C2.51172 15.6931 6.31589 19.4881 11.0001 19.4881C13.6767 19.4881 16.0692 18.2414 17.6276 16.3072" stroke="#622CFD" stroke-linecap="round" stroke-linejoin="round"/>
<path d="M8.25 7.79102H12.265C13.1542 7.79102 13.8692 8.59768 13.8692 9.39518C13.8692 10.2843 13.1542 10.9993 12.265 10.9993H8.25V7.79102Z" stroke="#622CFD" stroke-miterlimit="10" stroke-linecap="round" stroke-linejoin="round"/>
<path d="M8.25 11H12.8333C13.8417 11 14.6667 11.715 14.6667 12.6042C14.6667 13.4933 13.8417 14.2083 12.8333 14.2083H8.25V11Z" stroke="#622CFD" stroke-miterlimit="10" stroke-linecap="round" stroke-linejoin="round"/>
<path d="M10.8164 14.209V15.8132" stroke="#622CFD" stroke-miterlimit="10" stroke-linecap="round" stroke-linejoin="round"/>
<path d="M10.8164 6.1875V7.79167" stroke="#622CFD" stroke-miterlimit="10" stroke-linecap="round" stroke-linejoin="round"/>
</svg>
