<svg width="36" height="36" viewBox="0 0 36 36" fill="none" xmlns="http://www.w3.org/2000/svg">
<path d="M3.75 26.25V9.75C3.75 8.1 5.1 6.75 6.75 6.75H29.25C30.9 6.75 32.25 8.1 32.25 9.75V26.25C32.25 27.9 30.9 29.25 29.25 29.25H6.75C5.1 29.25 3.75 27.9 3.75 26.25Z" fill="white" fill-opacity="0.3"/>
<path d="M32.25 15.75V14.25H23.25C22.425 14.25 21.75 13.575 21.75 12.75C21.75 11.925 22.425 11.25 23.25 11.25H24V9.75H23.25C21.6 9.75 20.25 11.1 20.25 12.75C20.25 14.4 21.6 15.75 23.25 15.75H25.5V20.25H23.25C21.15 20.25 19.5 21.9 19.5 24C19.5 26.1 21.15 27.75 23.25 27.75H24.75V26.25H23.25C21.975 26.25 21 25.275 21 24C21 22.725 21.975 21.75 23.25 21.75H32.25V20.25H27V15.75H32.25ZM12.75 20.25H10.5V15.75H12.75C14.4 15.75 15.75 14.4 15.75 12.75C15.75 11.1 14.4 9.75 12.75 9.75H10.5V11.25H12.75C13.575 11.25 14.25 11.925 14.25 12.75C14.25 13.575 13.575 14.25 12.75 14.25H3.75V15.75H9V20.25H3.75V21.75H12.75C14.025 21.75 15 22.725 15 24C15 25.275 14.025 26.25 12.75 26.25H11.25V27.75H12.75C14.85 27.75 16.5 26.1 16.5 24C16.5 21.9 14.85 20.25 12.75 20.25Z" fill="white"/>
</svg>
