<svg width="26" height="26" viewBox="0 0 26 26" fill="none" xmlns="http://www.w3.org/2000/svg">
<path d="M15.1663 2.1665H6.49967C5.92504 2.1665 5.37394 2.39478 4.96761 2.80111C4.56128 3.20743 4.33301 3.75853 4.33301 4.33317V21.6665C4.33301 22.2411 4.56128 22.7922 4.96761 23.1986C5.37394 23.6049 5.92504 23.8332 6.49967 23.8332H19.4997C20.0743 23.8332 20.6254 23.6049 21.0317 23.1986C21.4381 22.7922 21.6663 22.2411 21.6663 21.6665V8.6665L15.1663 2.1665Z" stroke="#622CFD" stroke-width="1.5" stroke-linecap="round" stroke-linejoin="round"/>
<path d="M15.167 2.1665V8.6665H21.667" stroke="#622CFD" stroke-width="1.5" stroke-linecap="round" stroke-linejoin="round"/>
<path d="M17.3337 14.0835H8.66699" stroke="#622CFD" stroke-width="1.5" stroke-linecap="round" stroke-linejoin="round"/>
<path d="M17.3337 18.4165H8.66699" stroke="#622CFD" stroke-width="1.5" stroke-linecap="round" stroke-linejoin="round"/>
<path d="M10.8337 9.75H9.75033H8.66699" stroke="#622CFD" stroke-width="1.5" stroke-linecap="round" stroke-linejoin="round"/>
</svg>
