<svg width="25" height="25" viewBox="0 0 25 25" fill="none" xmlns="http://www.w3.org/2000/svg">
<path d="M2.8854 10.4168C2.43748 10.4168 2.08331 10.0627 2.08331 9.61475V7.2085C2.08331 4.38558 4.3854 2.0835 7.20831 2.0835H9.61456C10.0625 2.0835 10.4166 2.43766 10.4166 2.88558C10.4166 3.3335 10.0625 3.68766 9.61456 3.68766H7.20831C5.2604 3.68766 3.68748 5.271 3.68748 7.2085V9.61475C3.68748 10.0627 3.3229 10.4168 2.8854 10.4168Z" fill="white"/>
<path d="M22.1146 10.4168C21.6771 10.4168 21.3125 10.0627 21.3125 9.61475V7.2085C21.3125 5.26058 19.7291 3.68766 17.7916 3.68766H15.3854C14.9375 3.68766 14.5833 3.32308 14.5833 2.88558C14.5833 2.44808 14.9375 2.0835 15.3854 2.0835H17.7916C20.6146 2.0835 22.9166 4.38558 22.9166 7.2085V9.61475C22.9166 10.0627 22.5625 10.4168 22.1146 10.4168Z" fill="white"/>
<path d="M17.7917 22.9168H16.3438C15.9063 22.9168 15.5417 22.5627 15.5417 22.1147C15.5417 21.6772 15.8959 21.3127 16.3438 21.3127H17.7917C19.7396 21.3127 21.3125 19.7293 21.3125 17.7918V16.3543C21.3125 15.9168 21.6667 15.5522 22.1146 15.5522C22.5521 15.5522 22.9167 15.9064 22.9167 16.3543V17.7918C22.9167 20.6147 20.6146 22.9168 17.7917 22.9168Z" fill="white"/>
<path d="M9.61456 22.9168H7.20831C4.3854 22.9168 2.08331 20.6147 2.08331 17.7918V15.3856C2.08331 14.9377 2.43748 14.5835 2.8854 14.5835C3.33331 14.5835 3.68748 14.9377 3.68748 15.3856V17.7918C3.68748 19.7397 5.27081 21.3127 7.20831 21.3127H9.61456C10.0521 21.3127 10.4166 21.6668 10.4166 22.1147C10.4166 22.5627 10.0625 22.9168 9.61456 22.9168Z" fill="white"/>
<path d="M19.2292 11.6978H17.8125H7.1875H5.77083C5.32292 11.6978 4.96875 12.0623 4.96875 12.4998C4.96875 12.9373 5.32292 13.3019 5.77083 13.3019H7.1875H17.8125H19.2292C19.6771 13.3019 20.0312 12.9373 20.0312 12.4998C20.0312 12.0623 19.6771 11.6978 19.2292 11.6978Z" fill="white"/>
<path d="M7.1875 14.521V14.8647C7.1875 16.5939 8.58333 17.9897 10.3125 17.9897H14.6875C16.4167 17.9897 17.8125 16.5939 17.8125 14.8647V14.521C17.8125 14.396 17.7187 14.3022 17.5937 14.3022H7.40625C7.28125 14.3022 7.1875 14.396 7.1875 14.521Z" fill="white"/>
<path d="M7.1875 10.479V10.1353C7.1875 8.40609 8.58333 7.01025 10.3125 7.01025H14.6875C16.4167 7.01025 17.8125 8.40609 17.8125 10.1353V10.479C17.8125 10.604 17.7187 10.6978 17.5937 10.6978H7.40625C7.28125 10.6978 7.1875 10.604 7.1875 10.479Z" fill="white"/>
</svg>
