<svg width="20" height="20" viewBox="0 0 20 20" fill="none" xmlns="http://www.w3.org/2000/svg">
<path d="M10 12.5C11.3807 12.5 12.5 11.3807 12.5 10C12.5 8.61929 11.3807 7.5 10 7.5C8.61929 7.5 7.5 8.61929 7.5 10C7.5 11.3807 8.61929 12.5 10 12.5Z" stroke="#17161B" stroke-width="1.5" stroke-linecap="round" stroke-linejoin="round"/>
<path d="M16.1671 12.5002C16.0561 12.7515 16.0231 13.0303 16.0721 13.3007C16.1211 13.571 16.25 13.8204 16.4421 14.0168L16.4921 14.0668C16.647 14.2216 16.77 14.4054 16.8538 14.6078C16.9377 14.8101 16.9809 15.027 16.9809 15.246C16.9809 15.465 16.9377 15.6819 16.8538 15.8842C16.77 16.0866 16.647 16.2704 16.4921 16.4252C16.3373 16.5801 16.1535 16.7031 15.9511 16.7869C15.7488 16.8708 15.5319 16.914 15.3129 16.914C15.0939 16.914 14.877 16.8708 14.6747 16.7869C14.4723 16.7031 14.2885 16.5801 14.1337 16.4252L14.0837 16.3752C13.8873 16.1831 13.6379 16.0542 13.3676 16.0052C13.0972 15.9561 12.8184 15.9892 12.5671 16.1002C12.3206 16.2058 12.1104 16.3812 11.9623 16.6048C11.8143 16.8284 11.7348 17.0903 11.7337 17.3585V17.5002C11.7337 17.9422 11.5581 18.3661 11.2456 18.6787C10.933 18.9912 10.5091 19.1668 10.0671 19.1668C9.62505 19.1668 9.20112 18.9912 8.88856 18.6787C8.576 18.3661 8.40041 17.9422 8.40041 17.5002V17.4252C8.39396 17.1493 8.30467 16.8818 8.14417 16.6574C7.98366 16.433 7.75935 16.2621 7.50041 16.1668C7.24906 16.0559 6.97025 16.0228 6.69992 16.0718C6.42959 16.1208 6.18014 16.2497 5.98374 16.4418L5.93374 16.4918C5.77895 16.6468 5.59514 16.7697 5.39281 16.8536C5.19048 16.9375 4.9736 16.9806 4.75457 16.9806C4.53555 16.9806 4.31867 16.9375 4.11634 16.8536C3.91401 16.7697 3.7302 16.6468 3.57541 16.4918C3.42045 16.337 3.29751 16.1532 3.21364 15.9509C3.12977 15.7486 3.0866 15.5317 3.0866 15.3127C3.0866 15.0936 3.12977 14.8768 3.21364 14.6744C3.29751 14.4721 3.42045 14.2883 3.57541 14.1335L3.62541 14.0835C3.81752 13.8871 3.9464 13.6377 3.99541 13.3673C4.04443 13.097 4.01134 12.8182 3.90041 12.5668C3.79477 12.3204 3.61937 12.1101 3.39579 11.9621C3.17222 11.814 2.91023 11.7346 2.64207 11.7335H2.50041C2.05838 11.7335 1.63446 11.5579 1.3219 11.2453C1.00934 10.9328 0.83374 10.5089 0.83374 10.0668C0.83374 9.6248 1.00934 9.20088 1.3219 8.88832C1.63446 8.57576 2.05838 8.40016 2.50041 8.40016H2.57541C2.85124 8.39371 3.11874 8.30443 3.34316 8.14392C3.56757 7.98342 3.7385 7.75911 3.83374 7.50016C3.94467 7.24882 3.97776 6.97 3.92874 6.69967C3.87973 6.42934 3.75085 6.1799 3.55874 5.9835L3.50874 5.9335C3.35378 5.77871 3.23085 5.59489 3.14697 5.39256C3.0631 5.19023 3.01993 4.97336 3.01993 4.75433C3.01993 4.5353 3.0631 4.31843 3.14697 4.1161C3.23085 3.91377 3.35378 3.72995 3.50874 3.57516C3.66353 3.4202 3.84734 3.29727 4.04967 3.2134C4.252 3.12952 4.46888 3.08635 4.68791 3.08635C4.90693 3.08635 5.12381 3.12952 5.32614 3.2134C5.52847 3.29727 5.71229 3.4202 5.86707 3.57516L5.91707 3.62516C6.11347 3.81728 6.36292 3.94615 6.63325 3.99517C6.90358 4.04418 7.18239 4.01109 7.43374 3.90016H7.50041C7.74688 3.79453 7.95709 3.61913 8.10515 3.39555C8.25321 3.17198 8.33267 2.90999 8.33374 2.64183V2.50016C8.33374 2.05814 8.50934 1.63421 8.8219 1.32165C9.13446 1.00909 9.55838 0.833496 10.0004 0.833496C10.4424 0.833496 10.8664 1.00909 11.1789 1.32165C11.4915 1.63421 11.6671 2.05814 11.6671 2.50016V2.57516C11.6681 2.84332 11.7476 3.10531 11.8957 3.32888C12.0437 3.55246 12.2539 3.72786 12.5004 3.8335C12.7518 3.94443 13.0306 3.97752 13.3009 3.9285C13.5712 3.87948 13.8207 3.75061 14.0171 3.5585L14.0671 3.5085C14.2219 3.35354 14.4057 3.2306 14.608 3.14673C14.8103 3.06286 15.0272 3.01969 15.2462 3.01969C15.4653 3.01969 15.6821 3.06286 15.8845 3.14673C16.0868 3.2306 16.2706 3.35354 16.4254 3.5085C16.5804 3.66328 16.7033 3.8471 16.7872 4.04943C16.871 4.25176 16.9142 4.46864 16.9142 4.68766C16.9142 4.90669 16.871 5.12357 16.7872 5.3259C16.7033 5.52823 16.5804 5.71204 16.4254 5.86683L16.3754 5.91683C16.1833 6.11323 16.0544 6.36268 16.0054 6.63301C15.9564 6.90334 15.9895 7.18215 16.1004 7.4335V7.50016C16.206 7.74664 16.3814 7.95684 16.605 8.10491C16.8286 8.25297 17.0906 8.33243 17.3587 8.3335H17.5004C17.9424 8.3335 18.3664 8.50909 18.6789 8.82165C18.9915 9.13421 19.1671 9.55814 19.1671 10.0002C19.1671 10.4422 18.9915 10.8661 18.6789 11.1787C18.3664 11.4912 17.9424 11.6668 17.5004 11.6668H17.4254C17.1573 11.6679 16.8953 11.7474 16.6717 11.8954C16.4481 12.0435 16.2727 12.2537 16.1671 12.5002Z" stroke="#17161B" stroke-width="1.5" stroke-linecap="round" stroke-linejoin="round"/>
</svg>
