<svg width="46" height="20" viewBox="0 0 46 20" fill="none" xmlns="http://www.w3.org/2000/svg">
<g clip-path="url(#clip0_26_26)">
<path d="M17.4651 1.25614L11.4425 15.2839H7.51345L4.54969 4.08842C4.37 3.40053 4.21385 3.14737 3.66706 2.85649C2.7733 2.38246 1.29734 1.93912 0 1.66333L0.0875078 1.25614H6.41323C7.21823 1.25614 7.94309 1.77947 8.12745 2.68561L9.69342 10.8037L13.5596 1.25614H17.4651ZM22.7766 1.25614L19.7035 15.2839H15.9861L19.0596 1.25614H22.7766ZM32.86 10.7039C32.8754 7.00228 27.6178 6.79684 27.6521 5.14298C27.6647 4.64018 28.1552 4.10491 29.229 3.96807C29.7609 3.90088 31.2304 3.84737 32.8949 4.59614L33.546 1.61965C32.6517 1.30386 31.5008 1 30.0693 1C26.3947 1 23.8099 2.90561 23.7892 5.63649C23.7651 7.65649 25.6355 8.78228 27.0421 9.45509C28.4909 10.1421 28.9768 10.5837 28.9701 11.1977C28.9597 12.1389 27.8129 12.5556 26.7468 12.5711C24.8774 12.6 23.7937 12.0777 22.9292 11.6846L22.2545 14.7596C23.1242 15.1488 24.727 15.4868 26.3871 15.504C30.2935 15.504 32.8485 13.6202 32.86 10.7039ZM42.5631 15.2839H46L42.9974 1.25614H39.8265C39.1113 1.25614 38.5103 1.6614 38.2436 2.28439L32.6661 15.2839H36.5695L37.3437 13.1884H42.1126L42.5631 15.2839ZM38.4141 10.3139L40.3713 5.04597L41.4956 10.3139H38.414H38.4141ZM27.5341 19.1451H26.0236V20.5175H27.713V20.9302H25.5147V17.1228H27.6264V17.5354H26.0236V18.7384H27.5339V19.1454L27.5341 19.1451ZM28.4934 16.9195H29.0023V20.93H28.4934V16.9195ZM30.2863 19.6533C30.2978 20.3258 30.732 20.6025 31.2466 20.6025C31.6113 20.6025 31.8369 20.5404 32.0223 20.4614L32.1147 20.8174C31.9353 20.8963 31.623 20.9923 31.1772 20.9923C30.3154 20.9923 29.8006 20.4332 29.8006 19.6082C29.8006 18.7837 30.2978 18.1395 31.1138 18.1395C32.0338 18.1395 32.271 18.9193 32.271 19.4219C32.271 19.5235 32.265 19.5968 32.2534 19.6535L30.2863 19.6533ZM31.779 19.2975C31.7849 18.987 31.646 18.4954 31.0732 18.4954C30.5524 18.4954 30.3325 18.953 30.2919 19.2975H31.779ZM35.041 20.834C34.9081 20.8963 34.6128 20.9925 34.2369 20.9925C33.3922 20.9925 32.8426 20.4332 32.8426 19.597C32.8426 18.7553 33.4325 18.1396 34.3467 18.1396C34.6475 18.1396 34.9136 18.2128 35.0525 18.2865L34.9372 18.6649C34.8152 18.6028 34.6243 18.5347 34.3467 18.5347C33.7043 18.5347 33.3575 19.0037 33.3575 19.5689C33.3575 20.2014 33.7741 20.5912 34.3295 20.5912C34.6188 20.5912 34.8096 20.5235 34.9543 20.4614L35.041 20.834ZM36.4692 17.5407V18.196H37.198V18.5742H36.4692V20.0488C36.4692 20.3881 36.5677 20.5798 36.851 20.5798C36.9897 20.5798 37.071 20.5688 37.1463 20.5458L37.1694 20.9247C37.071 20.9584 36.9148 20.9923 36.7181 20.9923C36.4807 20.9923 36.2897 20.9132 36.1684 20.7835C36.0295 20.6307 35.9716 20.3881 35.9716 20.066V18.5742H35.5375V18.196H35.9716V17.6877L36.4694 17.5409L36.4692 17.5407ZM37.909 19.0491C37.909 18.727 37.9029 18.4503 37.8859 18.196H38.3315L38.3548 18.7381H38.3717C38.4993 18.3712 38.8114 18.1395 39.1526 18.1395C39.2049 18.1395 39.2455 18.1453 39.2919 18.1507V18.6198C39.2398 18.6082 39.1879 18.6082 39.118 18.6082C38.7597 18.6082 38.5047 18.8681 38.4355 19.2412C38.4236 19.3179 38.4178 19.3953 38.4181 19.4728V20.9304H37.909V19.0491ZM42.4212 19.5404C42.4212 20.5516 41.6977 20.9923 41.0268 20.9923C40.2744 20.9923 39.6845 20.4498 39.6845 19.5858C39.6845 18.6761 40.3035 18.1396 41.0731 18.1396C41.8773 18.1396 42.4212 18.7097 42.4212 19.5404ZM40.2051 19.5688C40.2051 20.1675 40.5522 20.6196 41.0498 20.6196C41.536 20.6196 41.9002 20.173 41.9002 19.5574C41.9002 19.0942 41.6631 18.5121 41.0613 18.5121C40.4656 18.5121 40.2051 19.0547 40.2051 19.5688ZM43.2014 18.936C43.2014 18.6481 43.1953 18.4219 43.178 18.1961H43.6294L43.6583 18.6481H43.6698C43.8087 18.3937 44.1327 18.1396 44.5956 18.1396C44.983 18.1396 45.5849 18.3656 45.5849 19.303V20.9302H45.0759V19.354C45.0759 18.9137 44.908 18.5461 44.4279 18.5461C44.098 18.5461 43.8375 18.7779 43.7453 19.0546C43.7219 19.1168 43.7104 19.2014 43.7104 19.2863V20.9302H43.2014V18.936Z" fill="white"/>
</g>
<defs>
<clipPath id="clip0_26_26">
<rect width="46" height="20" fill="white"/>
</clipPath>
</defs>
</svg>
