<svg width="50" height="50" viewBox="0 0 50 50" fill="none" xmlns="http://www.w3.org/2000/svg">
<rect width="50" height="50" rx="6" fill="#EBB834" fill-opacity="0.1"/>
<g clip-path="url(#clip0_43_612)">
<path d="M20.7859 26.9153L24.6165 30.7449C24.7181 30.8465 24.8558 30.9035 24.9995 30.9035C25.1431 30.9035 25.2809 30.8465 25.3824 30.7449L29.2131 26.9153C29.3147 26.8138 29.4524 26.7567 29.5961 26.7567C29.7397 26.7567 29.8774 26.8138 29.979 26.9153L31.6647 28.5999C31.7662 28.7015 31.8233 28.8392 31.8233 28.9829C31.8233 29.1265 31.7662 29.2643 31.6647 29.3658L25.3824 35.6481C25.2809 35.7496 25.1431 35.8067 24.9995 35.8067C24.8558 35.8067 24.7181 35.7496 24.6165 35.6481L18.3354 29.3658C18.2338 29.2643 18.1768 29.1265 18.1768 28.9829C18.1768 28.8392 18.2338 28.7015 18.3354 28.5999L20.021 26.9153C20.1226 26.8138 20.2603 26.7567 20.404 26.7567C20.5476 26.7567 20.6854 26.8138 20.7869 26.9153H20.7859ZM33.8877 22.8691L33.9624 22.9319L35.6481 24.6165C35.7378 24.7061 35.7933 24.8244 35.8048 24.9507C35.8162 25.077 35.783 25.2033 35.7109 25.3077L35.6481 25.3835L33.9624 27.0681C33.8728 27.1578 33.7545 27.2132 33.6282 27.2247C33.5019 27.2362 33.3756 27.203 33.2713 27.1309L33.1965 27.0681L31.5109 25.3824C31.4216 25.2927 31.3665 25.1746 31.3552 25.0485C31.3439 24.9225 31.3772 24.7965 31.4491 24.6923L31.5109 24.6165L33.1965 22.9319C33.2747 22.8537 33.3749 22.8013 33.4838 22.7817C33.5926 22.7622 33.7048 22.7764 33.8054 22.8225L33.8877 22.8691ZM16.8035 22.9319L18.4892 24.6165C18.5907 24.7181 18.6478 24.8558 18.6478 24.9995C18.6478 25.1431 18.5907 25.2808 18.4892 25.3824L16.8035 27.0692C16.7019 27.1707 16.5642 27.2278 16.4206 27.2278C16.2769 27.2278 16.1392 27.1707 16.0376 27.0692L14.3509 25.3824C14.2493 25.2808 14.1923 25.1431 14.1923 24.9995C14.1923 24.8558 14.2493 24.7181 14.3509 24.6165L16.0365 22.9319C16.1381 22.8304 16.2758 22.7733 16.4195 22.7733C16.5631 22.7733 16.7019 22.8304 16.8035 22.9319ZM25.3077 22.8691L25.3835 22.9319L27.0681 24.6165C27.1578 24.7061 27.2133 24.8244 27.2248 24.9507C27.2362 25.077 27.203 25.2033 27.1309 25.3077L27.0681 25.3835L25.3835 27.0681C25.2939 27.1578 25.1756 27.2132 25.0493 27.2247C24.923 27.2362 24.7967 27.203 24.6924 27.1309L24.6165 27.0681L22.9319 25.3824C22.8425 25.2929 22.7872 25.1748 22.7757 25.0487C22.7643 24.9227 22.7973 24.7966 22.8691 24.6923L22.9319 24.6165L24.6165 22.9319C24.6947 22.8537 24.7949 22.8013 24.9038 22.7817C25.0126 22.7622 25.1248 22.7764 25.2254 22.8225L25.3077 22.8691ZM25.3835 14.3519L31.6647 20.6331C31.7662 20.7347 31.8233 20.8724 31.8233 21.016C31.8233 21.1597 31.7662 21.2974 31.6647 21.399L29.979 23.0847C29.8774 23.1862 29.7397 23.2433 29.5961 23.2433C29.4524 23.2433 29.3147 23.1862 29.2131 23.0847L25.3835 19.2551C25.3332 19.2046 25.2734 19.1646 25.2076 19.1373C25.1418 19.11 25.0713 19.0959 25 19.0959C24.9288 19.0959 24.8582 19.11 24.7924 19.1373C24.7266 19.1646 24.6668 19.2046 24.6165 19.2551L20.7869 23.0847C20.6854 23.1862 20.5476 23.2433 20.404 23.2433C20.2603 23.2433 20.1226 23.1862 20.021 23.0847L18.3354 21.399C18.2338 21.2974 18.1768 21.1597 18.1768 21.016C18.1768 20.8724 18.2338 20.7347 18.3354 20.6331L24.6165 14.3519C24.7181 14.2504 24.8558 14.1933 24.9995 14.1933C25.1431 14.1933 25.2819 14.2504 25.3835 14.3519Z" fill="#EBB834"/>
</g>
<defs>
<clipPath id="clip0_43_612">
<rect width="26" height="26" fill="white" transform="translate(12 12)"/>
</clipPath>
</defs>
</svg>
