<svg width="50" height="50" viewBox="0 0 50 50" fill="none" xmlns="http://www.w3.org/2000/svg">
<rect x="0.00012207" width="50" height="50" rx="6" fill="#FFC700" fill-opacity="0.1"/>
<g clip-path="url(#clip0_43_610)">
<path d="M27.8688 27.6249L27.872 27.6206C27.7719 27.9094 27.5831 28.1593 27.3325 28.3345C27.0411 28.5393 26.6316 28.7007 26.0455 28.7288L23.8897 28.7332V25.559C24.2017 25.5677 25.5851 25.5449 26.1853 25.5753C26.9675 25.6132 27.4539 25.923 27.7128 26.2989C27.9966 26.6792 28.0302 27.1873 27.8688 27.6249ZM25.5624 24.0922C26.1073 24.0662 26.4854 23.9167 26.7551 23.7282C26.987 23.57 27.1614 23.3306 27.2535 23.0663C27.3986 22.66 27.3694 22.1888 27.1061 21.8367C26.8645 21.4911 26.415 21.204 25.6913 21.1693C25.155 21.1412 24.1605 21.1661 23.8886 21.1585V24.0933C23.9157 24.0976 25.5559 24.0922 25.5624 24.0922ZM38.0001 25C38.0001 32.1793 32.1794 38 25.0001 38C17.8209 38 12.0001 32.1793 12.0001 25C12.0001 17.8208 17.8209 12 25.0001 12C32.1794 12 38.0001 17.8208 38.0001 25ZM30.796 27.3205C30.8198 25.7204 29.4526 24.7942 28.729 24.5342C29.5035 24.0022 30.0355 23.4043 30.0355 22.2754C30.0355 20.4825 28.2523 19.6429 27.1679 19.5357C27.079 19.5259 26.832 19.5216 26.832 19.5216V17.8078H25.063L25.0673 19.5227H23.8843V17.8143H22.086V19.514C21.7696 19.5216 19.8662 19.5205 19.8662 19.5205V21.0383H20.4848C21.1359 21.0556 21.3753 21.4304 21.3493 21.7717V28.3161C21.3452 28.4235 21.3022 28.5257 21.2282 28.6037C21.1543 28.6817 21.0544 28.73 20.9474 28.7397C20.6776 28.7516 20.2746 28.7397 20.2746 28.7397L19.928 30.46H22.0903V32.1933H23.8897V30.4698H25.0716V32.1966H26.831V30.4763C28.8882 30.5304 30.7775 29.316 30.796 27.3205Z" fill="#FFC700"/>
</g>
<defs>
<clipPath id="clip0_43_610">
<rect width="26" height="26" fill="white" transform="translate(12.0001 12)"/>
</clipPath>
</defs>
</svg>
