<svg width="40" height="40" viewBox="0 0 40 40" fill="none" xmlns="http://www.w3.org/2000/svg">
<rect width="40" height="40" rx="6" fill="#C3A634" fill-opacity="0.1"/>
<g clip-path="url(#clip0_390_2161)">
<path d="M20 32C26.6274 32 32 26.6274 32 20C32 13.3726 26.6274 8 20 8C13.3726 8 8 13.3726 8 20C8 26.6274 13.3726 32 20 32Z" fill="#C3A634"/>
<path fill-rule="evenodd" clip-rule="evenodd" d="M17.936 18.9575H21.1715V20.672H17.936V24.2855H19.9767C20.7845 24.2855 21.4453 24.1768 21.9598 23.9578C22.4743 23.7395 22.8778 23.4372 23.171 23.0502C23.4709 22.6478 23.6751 22.1822 23.768 21.689C23.8764 21.1326 23.9291 20.5668 23.9255 20C23.9291 19.4332 23.8764 18.8674 23.768 18.311C23.6752 17.8177 23.471 17.3521 23.171 16.9497C22.8778 16.5627 22.4735 16.2605 21.9598 16.0422C21.4453 15.8232 20.7845 15.7145 19.9767 15.7145H17.936V18.9583V18.9575ZM15.8615 20.672H14.75V18.9583H15.8615V14H20.7733C21.6807 14 22.466 14.1575 23.1298 14.4702C23.7935 14.7845 24.335 15.2127 24.7557 15.7565C25.1757 16.2995 25.4885 16.9355 25.6932 17.6638C25.898 18.392 26 19.1712 26 20C26.0051 20.7892 25.9017 21.5753 25.6925 22.3363C25.4885 23.0638 25.1757 23.7005 24.755 24.2435C24.335 24.7873 23.7935 25.2155 23.1298 25.5297C22.466 25.8432 21.68 26 20.7733 26H15.8615V20.672Z" fill="white"/>
</g>
<defs>
<clipPath id="clip0_390_2161">
<rect width="24" height="24" fill="white" transform="translate(8 8)"/>
</clipPath>
</defs>
</svg>
