<svg width="20" height="20" viewBox="0 0 20 20" fill="none" xmlns="http://www.w3.org/2000/svg">
<path fill-rule="evenodd" clip-rule="evenodd" d="M0.833008 10C0.833008 4.93754 4.93717 0.833374 9.99967 0.833374C15.0622 0.833374 19.1663 4.93754 19.1663 10C19.1663 15.0625 15.0622 19.1667 9.99967 19.1667C4.93717 19.1667 0.833008 15.0625 0.833008 10ZM10.678 3.68254C10.6009 3.57451 10.4991 3.48646 10.3812 3.42571C10.2632 3.36496 10.1324 3.33326 9.99967 3.33326C9.86696 3.33326 9.73617 3.36496 9.61819 3.42571C9.5002 3.48646 9.39843 3.57451 9.32134 3.68254L5.15467 9.51587C5.05381 9.65717 4.99959 9.82644 4.99959 10C4.99959 10.1736 5.05381 10.3429 5.15467 10.4842L9.32134 16.3175C9.39843 16.4256 9.5002 16.5136 9.61819 16.5744C9.73617 16.6351 9.86696 16.6668 9.99967 16.6668C10.1324 16.6668 10.2632 16.6351 10.3812 16.5744C10.4991 16.5136 10.6009 16.4256 10.678 16.3175L14.8447 10.4842C14.9455 10.3429 14.9998 10.1736 14.9998 10C14.9998 9.82644 14.9455 9.65717 14.8447 9.51587L10.678 3.68254ZM9.99967 10.7692L8.07717 10L9.99967 9.23087L11.9222 10L9.99967 10.7692ZM10.3088 12.44L11.8355 11.83L9.99967 14.3992L8.16384 11.83L9.69051 12.44C9.88899 12.5193 10.1104 12.5193 10.3088 12.44ZM9.99967 5.60004L8.16384 8.17004L9.69051 7.56004C9.88899 7.48074 10.1104 7.48074 10.3088 7.56004L11.8355 8.17004L9.99967 5.60004Z" fill="#17161B"/>
</svg>
