<svg width="35" height="35" viewBox="0 0 35 35" fill="none" xmlns="http://www.w3.org/2000/svg">
<path fill-rule="evenodd" clip-rule="evenodd" d="M1.45801 17.5C1.45801 8.6406 8.6403 1.45831 17.4997 1.45831C26.359 1.45831 33.5413 8.6406 33.5413 17.5C33.5413 26.3594 26.359 33.5416 17.4997 33.5416C8.6403 33.5416 1.45801 26.3594 1.45801 17.5ZM18.6868 6.44435C18.5519 6.25531 18.3738 6.10122 18.1673 5.9949C17.9608 5.88858 17.7319 5.83312 17.4997 5.83312C17.2674 5.83312 17.0385 5.88858 16.8321 5.9949C16.6256 6.10122 16.4475 6.25531 16.3126 6.44435L9.02092 16.6527C8.84441 16.9 8.74953 17.1962 8.74953 17.5C8.74953 17.8038 8.84441 18.1 9.02092 18.3473L16.3126 28.5556C16.4475 28.7446 16.6256 28.8987 16.8321 29.0051C17.0385 29.1114 17.2674 29.1668 17.4997 29.1668C17.7319 29.1668 17.9608 29.1114 18.1673 29.0051C18.3738 28.8987 18.5519 28.7446 18.6868 28.5556L25.9784 18.3473C26.1549 18.1 26.2498 17.8038 26.2498 17.5C26.2498 17.1962 26.1549 16.9 25.9784 16.6527L18.6868 6.44435ZM17.4997 18.846L14.1353 17.5L17.4997 16.1539L20.864 17.5L17.4997 18.846ZM18.0407 21.77L20.7124 20.7025L17.4997 25.1985L14.287 20.7025L16.9586 21.77C17.306 21.9087 17.6934 21.9087 18.0407 21.77ZM17.4997 9.79998L14.287 14.2975L16.9586 13.23C17.306 13.0912 17.6934 13.0912 18.0407 13.23L20.7124 14.2975L17.4997 9.79998Z" fill="white"/>
</svg>
