<svg width="50" height="50" viewBox="0 0 50 50" fill="none" xmlns="http://www.w3.org/2000/svg">
<rect width="50" height="50" rx="6" fill="#9FA8BE" fill-opacity="0.1"/>
<path fill-rule="evenodd" clip-rule="evenodd" d="M13.0831 25C13.0831 18.4187 18.4185 13.0833 24.9998 13.0833C31.581 13.0833 36.9165 18.4187 36.9165 25C36.9165 31.5812 31.581 36.9166 24.9998 36.9166C18.4185 36.9166 13.0831 31.5812 13.0831 25ZM25.8816 16.7872C25.7814 16.6468 25.6491 16.5323 25.4957 16.4533C25.3423 16.3744 25.1723 16.3332 24.9998 16.3332C24.8273 16.3332 24.6572 16.3744 24.5039 16.4533C24.3505 16.5323 24.2182 16.6468 24.118 16.7872L18.7013 24.3706C18.5702 24.5542 18.4997 24.7743 18.4997 25C18.4997 25.2257 18.5702 25.4457 18.7013 25.6294L24.118 33.2127C24.2182 33.3532 24.3505 33.4676 24.5039 33.5466C24.6572 33.6256 24.8273 33.6668 24.9998 33.6668C25.1723 33.6668 25.3423 33.6256 25.4957 33.5466C25.6491 33.4676 25.7814 33.3532 25.8816 33.2127L31.2983 25.6294C31.4294 25.4457 31.4999 25.2257 31.4999 25C31.4999 24.7743 31.4294 24.5542 31.2983 24.3706L25.8816 16.7872ZM24.9998 25.9999L22.5005 25L24.9998 24.0001L27.499 25L24.9998 25.9999ZM25.4017 28.172L27.3864 27.379L24.9998 30.7189L22.6132 27.379L24.5979 28.172C24.8559 28.2751 25.1437 28.2751 25.4017 28.172ZM24.9998 19.28L22.6132 22.621L24.5979 21.828C24.8559 21.7249 25.1437 21.7249 25.4017 21.828L27.3864 22.621L24.9998 19.28Z" fill="#958F9F"/>
</svg>
