<svg width="7" height="38" viewBox="0 0 7 38" fill="none" xmlns="http://www.w3.org/2000/svg">
<mask maskUnits="userSpaceOnUse" x="0" y="0" width="0" height="0" fill="black">
<rect fill="white" width="0" height="0"/>
</mask>
<path d="M3.5 0.833333C2.02724 0.833333 0.833333 2.02724 0.833333 3.5C0.833333 4.97276 2.02724 6.16667 3.5 6.16667C4.97276 6.16667 6.16667 4.97276 6.16667 3.5C6.16667 2.02724 4.97276 0.833333 3.5 0.833333ZM3.5 31.8333C2.02724 31.8333 0.833332 33.0272 0.833332 34.5C0.833332 35.9728 2.02724 37.1667 3.5 37.1667C4.97276 37.1667 6.16667 35.9728 6.16667 34.5C6.16667 33.0272 4.97276 31.8333 3.5 31.8333ZM3 3.5L3 34.5L4 34.5L4 3.5L3 3.5Z" fill="#958F9F" mask="url(#)"/>
</svg>
