<svg width="50" height="50" viewBox="0 0 50 50" fill="none" xmlns="http://www.w3.org/2000/svg">
<rect width="50" height="50" rx="6" fill="#032D9B" fill-opacity="0.1"/>
<g clip-path="url(#clip0_43_611)">
<path d="M25 12C22.4288 12 19.9154 12.7624 17.7776 14.1909C15.6398 15.6194 13.9735 17.6497 12.9896 20.0251C12.0056 22.4006 11.7482 25.0144 12.2498 27.5362C12.7514 30.0579 13.9895 32.3743 15.8076 34.1924C17.6257 36.0105 19.9421 37.2486 22.4638 37.7502C24.9856 38.2518 27.5995 37.9944 29.9749 37.0104C32.3503 36.0265 34.3807 34.3603 35.8091 32.2224C37.2376 30.0846 38 27.5712 38 25C38 21.5522 36.6304 18.2456 34.1924 15.8076C31.7544 13.3696 28.4478 12 25 12ZM24.7162 15.9845H27.5155C27.5728 15.9846 27.6292 15.9979 27.6805 16.0234C27.7318 16.0489 27.7765 16.0859 27.8111 16.1315C27.8457 16.1771 27.8693 16.2301 27.88 16.2864C27.8908 16.3426 27.8884 16.4006 27.873 16.4557L25.6738 23.9503L27.7376 23.3198L27.2956 24.8202L25.2113 25.4268L23.8593 29.992H31.0916C31.1489 29.9923 31.2054 30.0059 31.2566 30.0316C31.3078 30.0574 31.3523 30.0947 31.3868 30.1405C31.4212 30.1864 31.4445 30.2395 31.4549 30.2959C31.4654 30.3523 31.4626 30.4103 31.4469 30.4654L30.8164 32.6321C30.7862 32.7352 30.7235 32.8257 30.6376 32.8901C30.5516 32.9546 30.4472 32.9895 30.3398 32.9896H19.2941L21.1607 26.6824L19.0958 27.3108L19.5508 25.8363L21.62 25.208L24.2438 16.3463C24.2726 16.2427 24.3344 16.1513 24.4199 16.086C24.5053 16.0207 24.6097 15.9851 24.7173 15.9845H24.7162Z" fill="#032D9B"/>
</g>
<defs>
<clipPath id="clip0_43_611">
<rect width="26" height="26" fill="white" transform="translate(12 12)"/>
</clipPath>
</defs>
</svg>
