<svg width="51" height="29" viewBox="0 0 51 29" fill="none" xmlns="http://www.w3.org/2000/svg">
<path d="M2.00061 10.9158L1 12.7839V29H51V18.6842L50.5149 17.3378C50.0297 15.9914 49.0594 13.2987 48.0891 10.8608C47.1189 8.42286 46.1486 6.23983 45.1783 7.15647C44.208 8.0731 43.2377 12.0894 42.2674 12.063C41.2971 12.0366 40.3269 7.96762 39.3566 7.57996C38.3863 7.1923 37.416 10.486 36.4457 10.2355C35.4754 9.98494 34.5052 6.19019 33.5349 3.70029C32.5646 1.21039 31.5943 0.0253381 30.624 1.97043C29.6537 3.91553 28.6834 8.99076 27.7132 11.8881C26.7429 14.7855 25.7726 15.505 24.8023 14.311C23.832 13.117 22.8617 10.0096 21.8914 7.85938C20.9212 5.70914 19.9509 4.51606 18.9806 3.89399C18.0103 3.27192 17.04 3.22086 16.0697 4.62701C15.0995 6.03317 14.1292 8.89654 13.1589 10.8886C12.1886 12.8806 11.2183 14.0013 10.248 12.7839C9.27774 11.5666 8.30746 8.01126 7.33717 5.8873C6.36689 3.76334 5.3966 3.07074 4.42632 4.43197C3.45603 5.79321 2.48575 9.20828 2.00061 10.9158Z" fill="url(#paint0_linear_387_2060)" fill-opacity="0.6"/>
<path d="M1 12.6234L1.48514 10.9158C1.97029 9.20828 2.94057 5.79321 3.91086 4.43197C4.88114 3.07074 5.85143 3.76333 6.82171 5.8873C7.792 8.01126 8.76228 11.5666 9.73257 12.7839C10.7029 14.0013 11.6731 12.8806 12.6434 10.8886C13.6137 8.89654 14.584 6.03317 15.5543 4.62701C16.5246 3.22086 17.4948 3.27192 18.4651 3.89399C19.4354 4.51606 20.4057 5.70914 21.376 7.85938C22.3463 10.0096 23.3166 13.117 24.2868 14.311C25.2571 15.505 26.2274 14.7855 27.1977 11.8881C28.168 8.99076 29.1383 3.91553 30.1086 1.97043C31.0788 0.0253381 32.0491 1.21039 33.0194 3.70029C33.9897 6.19019 34.96 9.98494 35.9303 10.2355C36.9006 10.486 37.8708 7.1923 38.8411 7.57996C39.8114 7.96762 40.7817 12.0366 41.752 12.063C42.7223 12.0894 43.6925 8.0731 44.6628 7.15646C45.6331 6.23983 46.6034 8.42286 47.5737 10.8608C48.544 13.2987 49.5143 15.9914 49.9994 17.3378L50.4845 18.6842" stroke="#FA3131"/>
<defs>
<linearGradient id="paint0_linear_387_2060" x1="26" y1="1" x2="26" y2="29" gradientUnits="userSpaceOnUse">
<stop stop-color="#FA3131" stop-opacity="0.39"/>
<stop offset="1" stop-color="#FA3131" stop-opacity="0"/>
</linearGradient>
</defs>
</svg>
