<svg width="35" height="35" viewBox="0 0 35 35" fill="none" xmlns="http://www.w3.org/2000/svg">
<g clip-path="url(#clip0_387_2071)">
<path d="M25.4037 4.375C25.9178 4.37517 26.4227 4.51122 26.8673 4.76937C27.3119 5.02752 27.6803 5.39859 27.9353 5.845L32.7974 14.35C33.1147 14.9054 33.2407 15.5497 33.1558 16.1838C33.071 16.8178 32.78 17.4063 32.3278 17.8588L18.7901 31.3965C18.6208 31.5658 18.4199 31.7001 18.1987 31.7917C17.9775 31.8834 17.7404 31.9305 17.5009 31.9305C17.2615 31.9305 17.0244 31.8834 16.8032 31.7917C16.582 31.7001 16.3811 31.5658 16.2118 31.3965L2.67407 17.8588C2.22187 17.4063 1.93094 16.8178 1.84609 16.1838C1.76124 15.5497 1.88717 14.9054 2.20449 14.35L7.06512 5.84354C7.32017 5.39762 7.68848 5.02697 8.13278 4.7691C8.57708 4.51123 9.08161 4.37528 9.59532 4.375H25.4037ZM21.8745 8.75H13.1245C12.7528 8.75041 12.3953 8.89274 12.125 9.1479C11.8547 9.40307 11.6921 9.75181 11.6703 10.1229C11.6485 10.4939 11.7692 10.8593 12.0078 11.1443C12.2464 11.4294 12.5848 11.6126 12.9539 11.6565L13.1245 11.6667H16.0412V13.9198C14.9357 14.0219 13.931 14.2362 13.1187 14.541C12.5426 14.7569 12.0264 15.031 11.6414 15.3737C11.2564 15.715 10.937 16.186 10.937 16.7708C10.937 17.3556 11.2564 17.8267 11.6414 18.1679C12.0264 18.5106 12.5426 18.7848 13.1187 18.9992C13.9849 19.3244 15.0699 19.549 16.2643 19.6408C16.1488 19.8246 16.076 20.0319 16.0514 20.2475L16.0412 20.4167V23.3333C16.0416 23.705 16.1839 24.0625 16.4391 24.3328C16.6942 24.6031 17.043 24.7658 17.414 24.7875C17.7851 24.8093 18.1505 24.6886 18.4355 24.45C18.7205 24.2115 18.9037 23.8731 18.9476 23.504L18.9578 23.3333V20.4167C18.9583 20.1422 18.881 19.8731 18.7347 19.6408C19.9291 19.549 21.0141 19.3258 21.8803 18.9992C22.4564 18.7848 22.9726 18.5106 23.3576 18.1679C23.7426 17.8267 24.062 17.3556 24.062 16.7708C24.062 16.186 23.7426 15.715 23.3576 15.3737C22.9726 15.031 22.4564 14.7569 21.8803 14.5425C21.087 14.2579 20.2634 14.0661 19.4259 13.9708L18.9578 13.9198V11.6667H21.8745C22.2462 11.6663 22.6037 11.5239 22.874 11.2688C23.1443 11.0136 23.3069 10.6649 23.3287 10.2938C23.3505 9.92274 23.2298 9.55736 22.9912 9.27233C22.7526 8.98729 22.4142 8.80411 22.0451 8.76021L21.8745 8.75ZM18.9564 15.3854C19.779 15.4577 20.5893 15.6326 21.3684 15.906C21.8482 16.0869 22.1851 16.2838 22.3893 16.4646C22.4779 16.5327 22.5481 16.622 22.5934 16.7242L22.6037 16.7708L22.5934 16.8175C22.5481 16.9197 22.4779 17.0089 22.3893 17.0771C22.1851 17.2579 21.8482 17.4563 21.3684 17.6342C20.4132 17.9929 19.0453 18.2292 17.4995 18.2292C15.9537 18.2292 14.5857 17.9929 13.6305 17.6342C13.1507 17.4548 12.8139 17.2579 12.6082 17.0771C12.5196 17.0089 12.4494 16.9197 12.4041 16.8175L12.3953 16.7708C12.3953 16.7519 12.4026 16.6469 12.6082 16.4646C12.8124 16.2838 13.1507 16.0854 13.6305 15.9075C14.2722 15.6669 15.0991 15.4802 16.0426 15.3854C16.0594 15.7605 16.2202 16.1147 16.4916 16.3742C16.763 16.6337 17.124 16.7785 17.4995 16.7785C17.875 16.7785 18.236 16.6337 18.5074 16.3742C18.7788 16.1147 18.9396 15.7605 18.9564 15.3854Z" fill="#11A679"/>
</g>
<defs>
<clipPath id="clip0_387_2071">
<rect width="35" height="35" fill="white"/>
</clipPath>
</defs>
</svg>
