<svg width="38" height="38" viewBox="0 0 38 38" fill="none" xmlns="http://www.w3.org/2000/svg">
<path d="M36.4166 30.0833C36.4166 30.9232 36.083 31.7286 35.4891 32.3225C34.8952 32.9164 34.0898 33.25 33.2499 33.25H4.74992C3.91007 33.25 3.10461 32.9164 2.51075 32.3225C1.91688 31.7286 1.58325 30.9232 1.58325 30.0833V12.6667C1.58325 11.8268 1.91688 11.0214 2.51075 10.4275C3.10461 9.83363 3.91007 9.5 4.74992 9.5H11.0833L14.2499 4.75H23.7499L26.9166 9.5H33.2499C34.0898 9.5 34.8952 9.83363 35.4891 10.4275C36.083 11.0214 36.4166 11.8268 36.4166 12.6667V30.0833Z" stroke="#958F9F" stroke-width="1.5" stroke-linecap="round" stroke-linejoin="round"/>
<path d="M19.0001 26.9167C22.4979 26.9167 25.3334 24.0811 25.3334 20.5833C25.3334 17.0855 22.4979 14.25 19.0001 14.25C15.5023 14.25 12.6667 17.0855 12.6667 20.5833C12.6667 24.0811 15.5023 26.9167 19.0001 26.9167Z" stroke="#958F9F" stroke-width="1.5" stroke-linecap="round" stroke-linejoin="round"/>
</svg>
