<svg width="24" height="24" viewBox="0 0 24 24" fill="none" xmlns="http://www.w3.org/2000/svg">
<path d="M18 8C18 6.4087 17.3679 4.88258 16.2426 3.75736C15.1174 2.63214 13.5913 2 12 2C10.4087 2 8.88258 2.63214 7.75736 3.75736C6.63214 4.88258 6 6.4087 6 8C6 15 3 17 3 17H21C21 17 18 15 18 8Z" stroke="#17161B" stroke-width="1.5" stroke-linecap="round" stroke-linejoin="round"/>
<path d="M14.4001 19.2C14.1562 19.9299 13.8061 20.5358 13.3849 20.9571C12.9637 21.3783 12.4862 21.6 12.0001 21.6C11.514 21.6 11.0365 21.3783 10.6153 20.9571C10.1941 20.5358 9.844 19.9299 9.6001 19.2" stroke="#17161B" stroke-width="1.5" stroke-linecap="round" stroke-linejoin="round"/>
</svg>
