<svg width="24" height="24" viewBox="0 0 24 24" fill="none" xmlns="http://www.w3.org/2000/svg">
<path d="M3 9.97817C3 9.36099 3.28495 8.77838 3.77212 8.39946L11.3861 2.47751C11.7472 2.19665 12.2528 2.19665 12.6139 2.47751L20.2279 8.39946C20.7151 8.77838 21 9.36099 21 9.97817V20C21 20.5304 20.7893 21.0391 20.4142 21.4142C20.0391 21.7893 19.5304 22 19 22H5C4.46957 22 3.96086 21.7893 3.58579 21.4142C3.21071 21.0391 3 20.5304 3 20V9.97817Z" stroke="#17161B" stroke-width="1.5" stroke-linecap="round" stroke-linejoin="round"/>
<path d="M9 22V14C9 12.8954 9.89543 12 11 12H13C14.1046 12 15 12.8954 15 14V22" stroke="#17161B" stroke-width="1.5" stroke-linecap="round" stroke-linejoin="round"/>
</svg>
