<svg width="24" height="24" viewBox="0 0 24 24" fill="none" xmlns="http://www.w3.org/2000/svg">
<g clip-path="url(#clip0_21_24)">
<path d="M19.8477 19.8478C24.1819 15.5135 24.1819 8.48625 19.8477 4.15197C15.5134 -0.182305 8.48614 -0.182305 4.15186 4.15197C-0.182418 8.48625 -0.182418 15.5135 4.15186 19.8478C8.48614 24.1821 15.5134 24.1821 19.8477 19.8478Z" stroke="#1E1E1E" stroke-width="0.899887" stroke-linecap="round" stroke-linejoin="round"/>
<path d="M12.0312 7.55994L12.0228 7.55911L12.0144 7.55907C10.3131 7.55031 8.64187 8.00726 7.18171 8.88042L7.18164 8.8803L7.17566 8.8842C6.58278 9.27143 6.01243 9.69211 5.46738 10.1442L5.46717 10.1439L5.45914 10.1515C5.34337 10.2601 5.20142 10.3368 5.04713 10.3742C4.89342 10.4114 4.73272 10.4083 4.58059 10.3651C4.46768 10.3302 4.36414 10.2701 4.27775 10.1894C4.19092 10.1083 4.1237 10.0085 4.08116 9.89758C4.03862 9.78665 4.02188 9.6675 4.03222 9.54914C4.04244 9.43213 4.07886 9.31892 4.13877 9.21791C4.24585 9.05745 4.37502 8.91289 4.52248 8.7885L4.52255 8.78859L4.52722 8.78437C6.27753 7.20005 8.49068 6.22022 10.8402 5.9894L10.8407 5.98935C14.1442 5.65575 17.0115 6.66012 19.5086 8.82589L19.5159 8.83218L19.5238 8.83767C19.6399 8.91845 19.7379 9.0225 19.8117 9.14321C19.8852 9.26354 19.9329 9.39781 19.9519 9.53753C19.9703 9.69228 19.943 9.84904 19.8734 9.98846C19.8035 10.1282 19.6942 10.2444 19.5589 10.3226C19.4237 10.4008 19.2684 10.4376 19.1124 10.4283C18.9564 10.4191 18.8066 10.3642 18.6815 10.2706L18.6816 10.2705L18.6751 10.266C18.529 10.1664 18.3986 10.0509 18.2557 9.92431C18.2163 9.88936 18.1759 9.85357 18.1339 9.81705L18.134 9.81703L18.1317 9.81513C16.486 8.4287 14.4186 7.64189 12.2677 7.5833L12.0312 7.55994Z" stroke="#17161B" stroke-width="0.359955"/>
<path d="M16.9636 12.9105L16.9636 12.9104L16.9575 12.9104C16.8376 12.91 16.719 12.8855 16.6087 12.8383C16.4985 12.7911 16.3989 12.7222 16.3158 12.6357L16.3159 12.6356L16.3109 12.6308C15.2133 11.5731 13.7636 10.9584 12.2403 10.9048C10.717 10.8512 9.22769 11.3625 8.05852 12.3404L8.05829 12.3406C8.00072 12.3889 7.9473 12.4359 7.89596 12.4812C7.78378 12.58 7.68157 12.67 7.56781 12.7452L7.56765 12.745L7.55948 12.7511C7.39627 12.8728 7.19309 12.9282 6.99069 12.9064C6.78828 12.8846 6.6016 12.787 6.46808 12.6334L6.46808 12.6334L6.46732 12.6325C6.33557 12.4828 6.26515 12.2889 6.27013 12.0895C6.27511 11.8902 6.35514 11.7 6.49421 11.5571L6.49421 11.5571L6.49507 11.5562C7.26948 10.7493 8.22137 10.134 9.27515 9.75937L9.27517 9.75941L9.27906 9.75793C10.2554 9.38513 11.2974 9.21522 12.3416 9.25855C13.3857 9.30189 14.4101 9.55758 15.3522 10.01L15.3522 10.01L15.3554 10.0115C16.163 10.38 16.897 10.8919 17.522 11.5223L17.522 11.5223L17.5248 11.525C17.6435 11.6397 17.7237 11.7884 17.7544 11.9506C17.7851 12.1128 17.7647 12.2805 17.6961 12.4306L17.6959 12.4305L17.6929 12.4381C17.6347 12.5823 17.5334 12.705 17.4029 12.7895C17.2724 12.8741 17.119 12.9163 16.9636 12.9105Z" stroke="#17161B" stroke-width="0.359955"/>
<path d="M15.2918 14.0283L15.2917 14.0284L15.2972 14.0339C15.4436 14.1793 15.5287 14.3752 15.535 14.5814C15.5414 14.787 15.469 14.9872 15.3327 15.1412C15.1883 15.2966 14.9898 15.3908 14.778 15.4045C14.5662 15.4183 14.3573 15.3505 14.194 15.2151C13.8479 14.9129 13.4648 14.6559 13.0539 14.4502L13.0476 14.447L13.041 14.4444C12.489 14.2208 11.9525 14.1691 11.4407 14.2764C10.9302 14.3835 10.4556 14.6465 10.0217 15.035L10.013 15.0428L10.0054 15.0516C9.89855 15.1755 9.76293 15.2713 9.61045 15.3307C9.45943 15.3895 9.29641 15.4108 9.13538 15.3928C9.00224 15.3695 8.87731 15.3123 8.7726 15.2267C8.6667 15.1401 8.58511 15.0275 8.53585 14.9C8.48659 14.7724 8.47134 14.6342 8.4916 14.4989C8.51181 14.364 8.56664 14.2367 8.65073 14.1294C9.0753 13.604 9.62934 13.1982 10.2583 12.952L10.2584 12.9521L10.2637 12.9498C10.806 12.7171 11.3889 12.5936 11.979 12.5864C12.6009 12.5837 13.2166 12.7104 13.7868 12.9586C14.3573 13.2068 14.8698 13.5712 15.2918 14.0283Z" stroke="#17161B" stroke-width="0.359955"/>
<path d="M12.0195 18.0757V18.0757L12.0158 18.0758C11.8816 18.0785 11.7482 18.0541 11.6236 18.0041C11.4991 17.954 11.386 17.8792 11.2911 17.7843C11.1961 17.6894 11.1214 17.5762 11.0713 17.4517C11.0212 17.3272 10.9968 17.1938 10.9996 17.0596L10.9996 17.0596L10.9996 17.0558C10.9996 16.788 11.1049 16.5309 11.2929 16.34C11.4808 16.1493 11.7362 16.0401 12.0039 16.036C12.1377 16.0345 12.2705 16.0594 12.3947 16.1092C12.519 16.1591 12.6323 16.2329 12.728 16.3266C12.8238 16.4202 12.9002 16.5318 12.9529 16.655C13.0055 16.7781 13.0334 16.9104 13.0349 17.0444C13.0364 17.1783 13.0115 17.3112 12.9616 17.4355C12.9118 17.5599 12.8379 17.6731 12.7443 17.7689C12.6506 17.8647 12.5391 17.9411 12.4159 17.9937C12.293 18.0462 12.161 18.0741 12.0274 18.0757H12.0195Z" stroke="#17161B" stroke-width="0.359955"/>
<path d="M2.67865 17.6438L20.6734 5.34534" stroke="#1E1E1E" stroke-width="0.899887" stroke-linecap="round" stroke-linejoin="round"/>
</g>
<defs>
<clipPath id="clip0_21_24">
<rect width="24" height="24" fill="white"/>
</clipPath>
</defs>
</svg>
