<svg width="26" height="26" viewBox="0 0 26 26" fill="none" xmlns="http://www.w3.org/2000/svg">
<path d="M19.5 8.66667H20.5833C21.7326 8.66667 22.8348 9.12322 23.6475 9.93588C24.4601 10.7485 24.9167 11.8507 24.9167 13C24.9167 14.1493 24.4601 15.2515 23.6475 16.0641C22.8348 16.8768 21.7326 17.3333 20.5833 17.3333H19.5" stroke="white" stroke-width="2" stroke-linecap="round" stroke-linejoin="round"/>
<path d="M2.16667 8.66667H19.5V18.4167C19.5 19.5659 19.0435 20.6681 18.2308 21.4808C17.4181 22.2935 16.3159 22.75 15.1667 22.75H6.5C5.35073 22.75 4.24853 22.2935 3.43587 21.4808C2.62321 20.6681 2.16667 19.5659 2.16667 18.4167V8.66667Z" fill="white"/>
<path d="M6.5 1.08333V4.33333" stroke="white" stroke-width="2" stroke-linecap="round" stroke-linejoin="round"/>
<path d="M10.8333 1.08333V4.33333" stroke="white" stroke-width="2" stroke-linecap="round" stroke-linejoin="round"/>
<path d="M15.1667 1.08333V4.33333" stroke="white" stroke-width="2" stroke-linecap="round" stroke-linejoin="round"/>
</svg>
