<svg width="26" height="26" viewBox="0 0 26 26" fill="none" xmlns="http://www.w3.org/2000/svg">
<path d="M19.5 8.6665H20.5833C21.7326 8.6665 22.8348 9.12305 23.6475 9.93571C24.4601 10.7484 24.9167 11.8506 24.9167 12.9998C24.9167 14.1491 24.4601 15.2513 23.6475 16.064C22.8348 16.8766 21.7326 17.3332 20.5833 17.3332H19.5" stroke="#17161B" stroke-width="2" stroke-linecap="round" stroke-linejoin="round"/>
<path d="M2.16663 8.6665H19.5V18.4165C19.5 19.5658 19.0434 20.668 18.2308 21.4806C17.4181 22.2933 16.3159 22.7498 15.1666 22.7498H6.49996C5.35069 22.7498 4.24849 22.2933 3.43583 21.4806C2.62317 20.668 2.16663 19.5658 2.16663 18.4165V8.6665Z" fill="#17161B"/>
<path d="M6.5 1.0835V4.3335" stroke="#17161B" stroke-width="2" stroke-linecap="round" stroke-linejoin="round"/>
<path d="M10.8334 1.0835V4.3335" stroke="#17161B" stroke-width="2" stroke-linecap="round" stroke-linejoin="round"/>
<path d="M15.1666 1.0835V4.3335" stroke="#17161B" stroke-width="2" stroke-linecap="round" stroke-linejoin="round"/>
</svg>
