<svg width="26" height="26" viewBox="0 0 26 26" fill="none" xmlns="http://www.w3.org/2000/svg">
<path d="M7.9599 9.42501L8.9882 2.60001H3.64L1.4053 8.45001C1.3364 8.65801 1.3 8.87381 1.3 9.10001C1.3 10.5352 2.795 11.7 4.6423 11.7C6.3453 11.7 7.7532 10.7068 7.9599 9.42501ZM13 11.7C14.846 11.7 16.3423 10.5352 16.3423 9.10001C16.3423 9.04671 16.3384 8.99341 16.3358 8.94271L15.6741 2.60001H10.3259L9.6629 8.93751C9.65983 8.99162 9.65809 9.0458 9.6577 9.10001C9.6577 10.5352 11.154 11.7 13 11.7ZM19.5 13.0598V18.2H6.5V13.0676C5.9306 13.273 5.304 13.39 4.6423 13.39C4.3888 13.39 4.1431 13.3601 3.9 13.3263V21.58C3.9 22.581 4.7177 23.4 5.7174 23.4H20.28C21.281 23.4 22.1 22.5797 22.1 21.58V13.3276C21.8543 13.3653 21.6063 13.3866 21.3577 13.3913C20.7238 13.3907 20.095 13.2785 19.5 13.0598ZM24.596 8.45001L22.3587 2.60001H17.0118L18.0388 9.41461C18.239 10.7016 19.6469 11.7 21.3577 11.7C23.2037 11.7 24.7 10.5352 24.7 9.10001C24.7 8.87381 24.6636 8.65801 24.596 8.45001Z" fill="white"/>
</svg>
