<svg width="26" height="26" viewBox="0 0 26 26" fill="none" xmlns="http://www.w3.org/2000/svg">
<path d="M21.6667 13V23.8333H4.33337V13" fill="#17161B"/>
<path d="M23.8333 7.5835H2.16663V13.0002H23.8333V7.5835Z" stroke="#17161B" stroke-width="2" stroke-linecap="round" stroke-linejoin="round"/>
<path d="M13 23V8" stroke="white" stroke-width="2" stroke-linecap="round" stroke-linejoin="round"/>
<path d="M13 7.58317H8.12496C7.40666 7.58317 6.71779 7.29783 6.20988 6.78992C5.70197 6.28201 5.41663 5.59313 5.41663 4.87484C5.41663 4.15654 5.70197 3.46767 6.20988 2.95976C6.71779 2.45185 7.40666 2.1665 8.12496 2.1665C11.9166 2.1665 13 7.58317 13 7.58317Z" stroke="#17161B" stroke-width="2" stroke-linecap="round" stroke-linejoin="round"/>
<path d="M13 7.58317H17.875C18.5933 7.58317 19.2822 7.29783 19.7901 6.78992C20.298 6.28201 20.5833 5.59313 20.5833 4.87484C20.5833 4.15654 20.298 3.46767 19.7901 2.95976C19.2822 2.45185 18.5933 2.1665 17.875 2.1665C14.0833 2.1665 13 7.58317 13 7.58317Z" stroke="#17161B" stroke-width="2" stroke-linecap="round" stroke-linejoin="round"/>
</svg>
